<svg xmlns="http://www.w3.org/2000/svg" width="920" height="560" viewBox="0 0 920 560">
  <rect width="920" height="560" fill="#ffffff"/>
  <text x="460" y="42" text-anchor="middle" font-family="Times New Roman, serif" font-size="26" fill="#111111">Uin - Duty Cycle</text>
  <g stroke="#d5d8dc" stroke-width="1" stroke-dasharray="5 4">
    <line x1="90" y1="480" x2="860" y2="480"/>
    <line x1="90" y1="404" x2="860" y2="404"/>
    <line x1="90" y1="328" x2="860" y2="328"/>
    <line x1="90" y1="252" x2="860" y2="252"/>
    <line x1="90" y1="176" x2="860" y2="176"/>
    <line x1="90" y1="100" x2="860" y2="100"/>
    <line x1="90" y1="480" x2="90" y2="100"/>
    <line x1="244" y1="480" x2="244" y2="100"/>
    <line x1="398" y1="480" x2="398" y2="100"/>
    <line x1="552" y1="480" x2="552" y2="100"/>
    <line x1="706" y1="480" x2="706" y2="100"/>
    <line x1="860" y1="480" x2="860" y2="100"/>
  </g>
  <g stroke="#111111" stroke-width="2">
    <line x1="90" y1="480" x2="860" y2="480"/>
    <line x1="90" y1="480" x2="90" y2="100"/>
  </g>
  <g font-family="Times New Roman, serif" font-size="18" fill="#111111">
    <text x="90" y="510" text-anchor="middle">0</text>
    <text x="244" y="510" text-anchor="middle">1</text>
    <text x="398" y="510" text-anchor="middle">2</text>
    <text x="552" y="510" text-anchor="middle">3</text>
    <text x="706" y="510" text-anchor="middle">4</text>
    <text x="860" y="510" text-anchor="middle">5</text>
    <text x="66" y="486" text-anchor="end">0%</text>
    <text x="66" y="410" text-anchor="end">10%</text>
    <text x="66" y="334" text-anchor="end">20%</text>
    <text x="66" y="258" text-anchor="end">30%</text>
    <text x="66" y="182" text-anchor="end">40%</text>
    <text x="66" y="106" text-anchor="end">50%</text>
    <text x="475" y="544" text-anchor="middle" font-size="22">Input voltage Uin / V</text>
    <text x="28" y="290" text-anchor="middle" font-size="22" transform="rotate(-90 28 290)">Duty cycle / %</text>
  </g>
  <polyline
    fill="none"
    stroke="#111111"
    stroke-width="3"
    points="90,96.2 120.8,112.9 213.2,158.5 351.8,226.2 428.8,264.2 490.4,294.6 598.2,347.0 706,399.7 783.0,437.4 844.6,467.8 860,475.4"
  />
  <g fill="#ffffff" stroke="#111111" stroke-width="3">
    <circle cx="90" cy="96.2" r="5.5"/>
    <circle cx="120.8" cy="112.9" r="5.5"/>
    <circle cx="213.2" cy="158.5" r="5.5"/>
    <circle cx="351.8" cy="226.2" r="5.5"/>
    <circle cx="428.8" cy="264.2" r="5.5"/>
    <circle cx="490.4" cy="294.6" r="5.5"/>
    <circle cx="598.2" cy="347.0" r="5.5"/>
    <circle cx="706" cy="399.7" r="5.5"/>
    <circle cx="783.0" cy="437.4" r="5.5"/>
    <circle cx="844.6" cy="467.8" r="5.5"/>
    <circle cx="860" cy="475.4" r="5.5"/>
  </g>
</svg>
